<svg xmlns="http://www.w3.org/2000/svg" viewBox="0 0 128 128">
  <rect width="128" height="128" rx="28" fill="#B9FF35"/>
  <g fill="#171D18" transform="translate(15.5, 21) scale(0.765)">
    <path d="m43.4 24.2-1 1.8c-2.4 5.1-4.9 11.6-4.8 18.2 0.4 13.9 7.4 26.3 17.3 32.3 5 3.5 10.7 7.2 18.5 7.3 16.3 0.1 33.2-12.4 33.3-35-1.2 8-9.6 18.7-24.7 18.7-15.1 0.2-26.1-12.9-25.8-25.2l0.3-3.8-14.1-14.4 1 0.1z"/>
    <path d="m43.4 0.2-42.7 43.2 22.3 24c5.6 6.3 11.6 12.7 18.5 21l9.6-10.4c-4-3.1-8.5-9.1-11.5-13.5l-11.5-13-7.8-8.1 23-23.3 22.8 23.3-5.4 5.5c0.9 3.2 4.8 8.6 8.7 11.1l16.7-16.6-42.7-43.8v0.6z"/>
    <path d="m57.1 8.2 13.2 13.9c2.8-1.4 7.1-2.6 11.9-2.6 6.2 0 10.9 1.9 14.7 4.5 6.5 4.2 12.1 12.4 12.1 24.9 0.2 16.3-10.9 32.5-29.8 36.7 0.9 0.3 20.7 2 35.2-13.2 7.2-7.4 12.4-17.3 12.4-29-0.3-21.5-18.3-42.5-44.5-42.6-8.9 0-16.7 2-25.2 7.1v0.3z"/>
  </g>
</svg>
